<svg xmlns="http://www.w3.org/2000/svg" viewBox="0 0 218.11 163.35"><defs><style>.cls-1,.cls-2{fill:#fff;}.cls-1,.cls-2,.cls-3{stroke:#040000;stroke-miterlimit:10;}.cls-1{stroke-width:4px;}.cls-2,.cls-3{stroke-width:3px;}.cls-3{fill:#7f3c28;}</style></defs><g id="レイヤー_2" data-name="レイヤー 2"><g id="レイヤー_1-2" data-name="レイヤー 1"><path class="cls-1" d="M51.8,158.52s-99.95-29.43-14.62-18.39c0,0,109.22,16.29,153.59-5.26,0,0,42.9-6.83,17.06,9.46,0,0-32.18,16.82-82.4,15.77C125.43,160.1,75.7,163.78,51.8,158.52Z"/><path class="cls-1" d="M24.4,145.72S-21.38,138,18,125.18c0,0,105.66-19.55,167.28-3.22,0,0,53.85,10,18,20.07,0,0-45.41,14.81-98.95,12.42C104.29,154.45,36.76,154.19,24.4,145.72Z"/><path class="cls-2" d="M170.46,31.71s37.83-6.37,37.65,23c0,0,3.27,36.8-16,46.08,0,0-13.92,11.69-30.26,9.11l-11.35-3.78,4.82-12.9s15.13,5.85,25.79-3.09a35,35,0,0,0,11.35-33.36s-4.13-14.61-21.32-9.11l-7.91-.35-.69-14.61Z"/><path class="cls-1" d="M41.17,18.54S32.32,96.12,57.45,124.47c0,0,39.22,43.78,90,1.31,0,0,18.55-22.23,18.19-55.64,0,0,.18-53.3-.53-53.68Z"/><path class="cls-1" d="M41.43,17S63-8,146.25,6.53c0,0,32.35,9.43,11.46,15.84,0,0-20.56,12.47-55.61,11.12C102.1,33.49,42.11,35.17,41.43,17Z"/><path class="cls-3" d="M61,27.43s26.43-9.36,85.8-1.54C146.82,25.89,100.79,42.9,61,27.43Z"/></g></g></svg>