<svg xmlns="http://www.w3.org/2000/svg" viewBox="0 0 211.46 185.58"><defs><style>.cls-1{fill:#915432;}.cls-1,.cls-2{stroke:#040000;}.cls-1,.cls-2,.cls-3,.cls-4,.cls-5,.cls-6,.cls-7{stroke-miterlimit:10;}.cls-2{fill:#fff;stroke-width:0.5px;}.cls-3,.cls-5,.cls-6{fill:#aaa65f;}.cls-3,.cls-7{stroke:#915432;}.cls-4,.cls-7{fill:none;}.cls-4,.cls-5{stroke:#e1e0bd;stroke-width:3px;}.cls-4,.cls-5,.cls-6{stroke-linecap:round;}.cls-6{stroke:#deddbb;}.cls-6,.cls-7{stroke-width:2px;}</style></defs><g id="レイヤー_2" data-name="レイヤー 2"><g id="レイヤー_1-2" data-name="レイヤー 1"><path class="cls-1" d="M26,3.85S24.67-.32,30.44.64s34.11,5.61,40.2,8.49c0,0,29.48-.8,42.77,2.76,0,0,41.16,10.86,42.94,13.13,0,0,34.67-10.7,44.23-9.89,0,0,8.27-2.75,10.37,2.43,0,0-1.62,50.72-2.75,51.53,0,0-4.14,27.82-5.48,29.6,0,0-10.22,84-12.89,85.77,0,0-23.55,2.22-36-1.78,0,0-8.72-.14-9.46-3,0,0-53-22.07-57-21.08,0,0-38.34-2.47-42.41-1.85,0,0-14.43-2.71-23.8-2.34,0,0-20.58-3.21-20.71-8.63L28.71,80.51s1.46-9,.73-14.53C29.44,66,27.07,4.7,26,3.85Z"/><path class="cls-2" d="M31.25,5.06s36.34,7,38,8.53c0,0,31.08-1.51,43.28,2.47,0,0,45,13.79,45.19,13.23,0,0,31.73-9.88,39.46-9.24,0,0,7.89-1.36,9-1.28,0,0-.45,42.82-2.59,50.08,0,0-3.7,28.75-4.27,29.32,0,0-11.66,74.56-12.52,75,0,0,.54,8.07-4.65,7.3,0,0-23.44-.58-26.51-1.92,0,0-12.11-1.35-14.61-4.61,0,0-38.43-15.57-39-16l-.58-.39s-14.6-5.38-18.25-3.84c0,0-28.06-.77-28.63-1,0,0-27.1-4.23-31.71-2.5,0,0-21-2.12-16.53-7.88,0,0,26.33-55.34,26.52-60.53,0,0,2.31-11.92.19-32.67C33.05,49.21,30.21,6.07,31.25,5.06Z"/><path class="cls-3" d="M38.59,15.42s46,9.29,53.74,7.93c0,0,18.59-1.58,29.93,3.18,0,0,31.07,12.47,41,10.65,0,0,36.06-7.25,36.51-6.57l-2.5,50.11s-15,89.57-16.78,91.38c0,0-2,2.72-22-.45,0,0-54.42-21.32-55.55-20.86,0,0-19-8.39-29.71-6.58,0,0-25.39-2-27.21-.91L20.22,141s-5.21,1.13-1.13-4.54L40.63,81.85Z"/><path class="cls-4" d="M39.53,70.73S51.6,64.45,64.23,56C79.46,45.78,95.52,32.41,92.15,23.12"/><path class="cls-4" d="M72.66,144.42S91.57,89.05,64.23,56"/><line class="cls-5" x1="152.84" y1="37.54" x2="109.46" y2="151.29"/><line class="cls-5" x1="136.11" y1="82.14" x2="196.65" y2="61.44"/><line class="cls-5" x1="71.84" y1="21.61" x2="155.89" y2="169.9"/><line class="cls-5" x1="78.56" y1="104.67" x2="19.68" y2="133.5"/><line class="cls-5" x1="160.39" y1="74.5" x2="185.88" y2="143.49"/><line class="cls-6" x1="104.76" y1="78.79" x2="127.46" y2="29.06"/><path class="cls-7" d="M37.86,14.5s39.54,8.22,46.51,7.84a50.79,50.79,0,0,0,13.57.09s18.72.77,25.5,4.49c0,0,25,9.55,29.52,9,0,0,6.3,1.53,9.74.57,0,0,16.24-3.15,18.62-3.53,0,0,15.19-2.87,16.62-2.87,0,0,2.23-1.23,2,5.64l-1.6,24.9-.61,5.4-.25,8v7l-3.06,18.4-7.36,42.08-5.53,29.32s-.85,3.93-6.38,3.07c0,0-16.56.25-21.1-3.07l-32.63-12.63-21.1-7.86s-19.26-6.87-25.15-5.52l-21.5-1.06s-6.59-.65-7.94.15l-25.44-2.45s-5.8,1.55-2.35-4.8l7.75-19.44,6.09-15.54,7.65-19.54-.65-21.34L37.72,27.67l-.45-12.55S36.94,14.19,37.86,14.5Z"/></g></g></svg>