<svg xmlns="http://www.w3.org/2000/svg" viewBox="0 0 291.05 522.95"><defs><style>.cls-1{fill:#fff;}.cls-2{fill:#7b8897;}</style></defs><g id="レイヤー_2" data-name="レイヤー 2"><g id="ひらがな"><path class="cls-1" d="M164.48,101.05c-1.84.58-2.87-3.57-3.33-3.57-2,0-1-18.54-1-18.54.46-3-.69-12.32-.69-12.32,0-5.18-1.84-5-1.84-5-5.65-11.63-4.84,3.91-4.84,3.91,2.19,2,1.61,11.17,1.61,11.17,0,1.15,1.5,16.12,1.5,16.12,2.53,3.8-4.72,1.85-4.72,1.85-.92-.69-9.56.11-9.56.11-4.61-.23-4.61,8-4.61,8-2.3,7.71,9.91,14.51,9.91,14.51,6.33,4.72,13.24-6.11,13.24-6.11-1-1.84,2.19-6.45,2.19-6.45C170.7,105.31,164.48,101.05,164.48,101.05Zm-11,5.74s-4.86,8-10.44,2.91c0,0-4.73-5.34,5.46-8.25C148.46,101.45,157.93,99.38,153.44,106.79Z"/><path class="cls-1" d="M0,40.82s1.48-4,4.24-3.07c0,0,5.05,1,5.69,1.23a12.76,12.76,0,0,0,4.44.67s1.93.09,2.6,1.18c0,0,1.34,1.38,1.17-.47,0,0,1-3.47,2.52-4.09a11.47,11.47,0,0,1-.1-3.06s2.15-5.18,2.32-7.1c0,0,2.3-5.1,2.19-5.43a8.19,8.19,0,0,0,1.21-3.89s4-8.56,5.81-1.15c0,0-.6,7.16-2.26,10.9,0,0-2.55,9.82-3.84,11.75,0,0-1.51,7-1.77,7.32,0,0,6.65,8.06,6.65,9.25,0,0,4.94,9.88,4.05,14.86,0,0,.26,9.88-1,12.16,0,0-4.78,10.45-8.11,9.2,0,0-7.38-3.79-3.79-5.77,0,0,6.86-8.68,6.6-13.2,0,0-1.46-11.12-3.33-14,0,0-4.68-9.1-4.36-1.2,0,0-1.82,7.17-2.55,8.68,0,0-2.08,6.7-2.29,8.36a70.16,70.16,0,0,0-2.7,8.94S10.33,91.76,10,93.16c0,0-3.48,7.58-3.59,9.4,0,0-4,2-2.65-1.94A28.84,28.84,0,0,1,4.6,95s2.07-8,2.79-8.68l3.9-15.86s3.35-12.42,3.35-14c0,0,2.55-7.8-2-9.4,0,0-5.9-1.39-7.17.2C5.48,47.28-.54,45.75,0,40.82Z"/><path class="cls-1" d="M53.31,12.52s-1.88-14.86,5.76-1.15c0,0,1.57,31.19,1.36,34.64,0,0,2,21.36,2.72,21.88,0,0,1.25,8.9.63,11.83,0,0,5.23,17-1.47,7.74,0,0-4.5-4.18-5.76-17.69,0,0-2.93-28.67-2.72-30.45,0,0-1.46-21.25-1.15-22.3A16.22,16.22,0,0,1,53.31,12.52Z"/><path class="cls-1" d="M108.53,15.55s6.66,7,7.59,1.75c0,0,3.07-9.84,3.48-10.15,0,0,2-8.7,4.2,1.23,0,0,1.23,9.22,0,11.17,0,0-2.56,5.94-.1,6.15,0,0,7.89,5.43.1,7.37,0,0-4.2-1.74-3.69,2.77,0,0-1.94,10.65-1.84,11.47,0,0-2,9.74-1.64,9.84,0,0-2.36,15.26-5.74.31,0,0,0-18.34,2.25-23.26,0,0,2.36-5.53-1.43-7.27,0,0-7.79-6.87-7.68-8.4C104,18.53,102.18,11.35,108.53,15.55Z"/><path class="cls-1" d="M150.54,18.42s-1.43-16.8,6.15-2.56A91.81,91.81,0,0,1,162.22,28s4.71,9.12,5.94,10c0,0-.1,10.14-5.94.82,0,0-9.53-14.14-10.14-16.8A16.66,16.66,0,0,1,150.54,18.42Z"/><path class="cls-1" d="M245.19,480.19s-14.18-7.49.91-7.26c0,0,20.64,3.51,25.41,7.71,0,0,6.69,5-3.86,4,0,0-6.58-2.84-3.29,3.4,0,0,3.4,16.68,3.29,17.93,0,0,.91,12,5,8.73,0,0,11.46-1,13.05-.34,0,0,6.8,1.13-4.31,5.79,0,0-22.58,1.81-24.85,2.83,0,0-13.95-.45-6.69-8.51a31.47,31.47,0,0,1,11.35-.9s1.81.45-.8-12.71c0,0-2.15-8.17-1-13.5,0,0,.91-3.74-3.06-3.4C256.31,483.93,245.64,481,245.19,480.19Z"/><path class="cls-1" d="M135.64,417.55a160,160,0,0,1,19,7.77s16.93,9.15,20.69,10.06c0,0,6.77,2.66,3.47,12,0,0-3.11,18.4-4.3,21.06,0,0-2.74,13.45-3.84,14.09,0,0-1.56,7.05-1.83,10.53,0,0-2.2,9.24-3.57,10.43,0,0-10.26,16.76-5.5-4.85,0,0,2.75-14.37,4.49-15.56,0,0-1.1-11.44,2.38-14.46,0,0,1.37-10.43,1.83-12.81,0,0,3.48-11.63,3.11-12.18,0,0,1.83-3.29-4.39-4.39,0,0-15.56-6-15.75-6.59,0,0-14.82-7.14-17-7.23C134.42,425.41,119.66,414.46,135.64,417.55Z"/><path class="cls-1" d="M219.8,23.72s-11.6-10.54,3.31-5c0,0,37.66,13,37.66,13.56,0,0,10.55,4.82,11.75,4.07,0,0,4.37,1.35-1.35,8,0,0-7.39,11.9-9.8,14.47,0,0-9.49,12.2-10.09,12.5,0,0-15.21,22.6-6.48,29.22,0,0,3.77,11.75,19,6.33,0,0,15.82-4.37,1.06,6.48,0,0-7.83,3.92-14.76-.3,0,0-16.12-6-13.71-25.16,0,0,4.52-13.26,18.07-30.88,0,0,8.74-15.07,9.34-16.12,0,0-23.95-7.84-26.81-9.79C237,31.11,221.3,24.63,219.8,23.72Z"/><path class="cls-1" d="M14.56,440.08s-17.15-8,.68-11.3c0,0,12.39,4.63,12.53,4.09,0,0,5.58,5.44,5.58-1,0,0,2.31-12.93,3.13-13.74,0,0,5.71-10.89,8.16,2.31,0,0-3.26,18.38-3.81,18.24,0,0,19.06,7.49,20,13.75,0,0,4.09,6.4,3.81,9.39l1.09,26.82s-.13,25.45-.95,26.13c0,0-5.85,17.7-6.4-2,0,0-1.09-21.64.41-29.13,0,0,.27-15.11.82-17.15,0,0-.14-8.58-6-13.75,0,0-10.62-6.26-12-6.26,0,0-1.91-2.18-2.59,3.27,0,0-3.67,14.43-4.08,15.24,0,0-4.63,23.28-5,23.28,0,0-5,27.63-7.08,28.18,0,0-5.3,10.89-2.85-4.9,0,0,5-32,5.17-33.76,0,0,5-23.42,4.76-24.91,0,0,3.27-8.17-.13-11.85C29.81,441,15.69,440.88,14.56,440.08Z"/><path class="cls-1" d="M283.87,4.15s1.89-8.54,6.65-1.12c0,0,1.4,5-.35,7.07,0,0-2.31,5-4,4.27,0,0-3.64,10.22-4.27.07C281.91,14.44,282.47,6.53,283.87,4.15Z"/><path class="cls-1" d="M269.45,4.85s1.33-7.91,4.41-1.26c0,0,3.85,3.57,1.75,7.77,0,0,.14,5.67-2.66,5.81C273,17.17,269.17,18.64,269.45,4.85Z"/></g><g id="奏"><path class="cls-1" d="M219.5,288.2c.35.81,12.74,10,12.74,10,2.57.59,19.86,11.69,19.86,11.69,1.4,4.9,9.46,4,9.46,4,23,1.87,8.65-17.64,8.65-17.64-5-9.12-27.57-19.16-27.57-19.16a123.88,123.88,0,0,1-28-22.2c-5.73-6.19,6.66-4.56,6.66-4.56,1.17,1.52,43.57.12,43.57.12,12.5-2.22,7.25-13,7.25-13-1.87-3.5-13.32-3.5-13.32-3.5-1.75-1.05-22,0-22,0-3.28,1.17-31.78.58-31.78.58-7.36.94-6.08-1.52-6.08-1.52,0-1.52-11-18.34-11-18.34-3.15-2.1,2.1-2.45,2.1-2.45.12.93,18.11.58,18.11.58,6.43,2.92,31.2,0,31.2,0,31.89-8.29-2.46-16.94-2.46-16.94-8.41-1.52-21.85.35-21.85.35-2.57,1.4-24.06.59-24.06.59-3.16-.24-36.92.58-36.92.58-3.86,2.69-8.41.58-8.41.58-5.84,2,.23-5.25.23-5.25,1-.94,5.49-12.27,5.49-12.27-.93-5.49,10.87-2.92,10.87-2.92,2.1-.82,40.42.47,40.42.47,1-1.06,41.59-.82,41.59-.82,17.64-1.05,15.66-10.17,15.66-10.17-3.51-9.11-24-6.07-24-6.07-2.81,1.17-20.92,1.4-21.73,1.05s-14.84.12-14.84.12c-3.51-1.17-15.89-.12-15.89-.12-1.17-.82-12.73-.23-12.73-.23-9.23-.47-14.37-1-14.37-1,1.28-4.56-1.41-10.52-1.41-10.52-2.1-9.93-23-4-23-4-6.54-.12-8.18,14.49-8.18,14.49,5.61,4.9-29.21,2.33-29.21,2.33-.35-.35-12.15-.58-12.15-.58-2.8.47-33.76.35-33.76.35-9.46-3-14.14,3-14.14,3-7.3,3.21-2.35,8.61-2.35,8.61-.48,7.24,31.38,4.82,31.38,4.82,6.76,3.86,17.14,0,17.14,0,2.41,1.45,33.55,0,33.55,0,4.58-1.2.48,9.17.48,9.17-3.38,13.28-6.76,10.87-6.76,10.87-2.9,1.69-41.27-1-41.27-1C54.66,195.73,39.21,202,39.21,202c-4.1,12.07,11.59,11.83,11.59,11.83,4.1,1,43.2.24,43.2.24,10.86-.73,7.73,3.38,7.73,3.38C100,217.21,91.59,231,91.59,231c-1.69,4.83-15.69,3.87-15.69,3.87-2.17,1.2-47.79-1.69-47.79-1.69-26.07,7.24,0,16.85,0,16.85.94,1.1,40.88.78,40.88.78,10.3.47,5.46,2.66,5.46,2.66.16.78-7.33,8.89-7.33,8.89-.78.78-18.72,15.6-18.72,15.6-4.37,5.47-19.2,11.55-19.2,11.55-2.18-.78-13.73,10-13.73,10-3.12,26.68,25.59,9.05,25.59,9.05,2.81.78,42.91-30,42.91-30,8,6.4,12,3.74,12,3.74,1.56,1.72,31.83.94,31.83.94,6.71-.62,1.71,12.79,1.71,12.79-.78,8-6.08,6.71-6.08,6.71-.94,1.25-21.07.94-21.07.94-.93.94-45.71-1.56-45.71-1.56-22.63,10-2,15.29-2,15.29,3.27,5.46,56,.47,56,.47,15.92-2.19,1.56,7.64,1.56,7.64-.31,4.06-24.18,18.1-24.18,18.1C72,352.35,38.91,356.56,38.91,356.56,11.92,361.71,26,373.88,26,373.88c6.71,9.36,50.24-5.61,50.24-5.61,8.11.46,55.23-29.18,55.23-29.18,4.69-3.9,37.76,10,37.76,10,4.53-.78,71.15,28.25,71.15,28.25,26.06,10.92,25.12-8.27,25.12-8.27-2.18-12.49-30.58-15.14-30.58-15.14-1.87.94-12.79-5.3-12.79-5.3-.94-2.34-41.51-15.3-41.51-15.3-5.61.47-25.45-7.73-29-9.25s0-1.87,0-1.87c.46,0,1.4-2.57,1.4-2.57,1.87-4.09,3.62-1.63,3.62-1.63-.12-.35,9.11-.35,9.11-.35,1.76-.24,16.48,0,16.48,0,1.75,2,23.83.58,23.83.58,1.75,1.29,24.53-.47,24.53-.47,18.35-1.17,6.55-11.68,6.55-11.68C235,302.33,224.41,302,224.41,302c-.35.47-21.5,0-21.5,0-2.8,1.87-27.45.35-27.45.35-3.5,1.4-15.54-1.05-15.54-1.05,1.29-.82,2-10.51,2-10.51a13.21,13.21,0,0,1,1.28-7.36c1.76,1.16,23.95-.71,23.95-.71,3.86,1.87,17.06-2,17.06-2,1.05-5,6.54,1.28,6.54,1.28C210,282.82,219.5,288.2,219.5,288.2Zm-94.76-56.59s4.42-5.46,4-6.41c0,0,2.65-1.48,3-2.88,0,0,1.47-3.09,1.91-2.35,0,0,1.11-5.9,6-4.5,0,0,9.14-1.1,12.53.66a108.79,108.79,0,0,1,6.26,11.28s2.65,5.23,3.17,5.89c0,0,3.75,3.46-1,2,0,0-12.89.15-13.77-1.1,0,0-11.5-.82-14,0,0,0-6.34-1.26-7.52-.89C125.25,233.3,120,234.41,124.74,231.61ZM188,268.31s-17.93.22-19.91-.66c0,0-8.5,1.53-14.53-.88-.55-.22-2.09,1.87-13.64,0,0,0-17.05.22-16.94-.77,0,0-15.07,1.43-17.16.66,0,0-5.72,1.32-6.6-.33,0,0-3.63-2.64-.33-4.84,0,0,4.95-6.38,5.61-7.15a7.85,7.85,0,0,1,6-1.32s13.42-1.76,15.18-.88c0,0,17.82-.66,19.47-.22,0,0,13.86-.11,14.3,0,0,0,12.22-1.87,14.2-.77,0,0,3.08-1.77,4.29,1.1,0,0,9.57,10.89,9.68,12.1C187.65,264.35,192.71,268.31,188,268.31Z"/><path class="cls-2" d="M265.68,297.09c-1.55-2.65-23.37-14.52-23.37-14.52-2.47-1.46-22.37-17-22.37-17-2.92-1.1-12.23-15-12.23-15-6.21-5.75,7.94-3.93,7.94-3.93a18.31,18.31,0,0,0,8.12-.27c1,.73,16.07.91,16.07.91,4,1.1,24.56-2.28,24.56-2.28,15.16-2.65-4.56-7.76-4.56-7.76-1-.73-18.9.27-18.9.27-1.28.91-26.66,1.1-26.66,1.1a27.26,27.26,0,0,1-17.53-3.2c-1-.36-13.33-20.63-13.33-20.63-4.11-3.2.91-4.84.91-4.84.19-2,23.47-1.37,23.47-1.37,5.84,1.64,28.48-.55,28.48-.55,19.45-.64,9.86-5.93,9.86-5.93-1.91-2.74-30.49-1.92-30.49-1.92-.46.82-28.58,1.28-28.58,1.28-2.19-.91-30.41.73-30.41.73-1.12-.51-10.87.6-10.87.6-.59-.69-4.78,0-4.78,0-3.42,2-1.46-3.59-1.46-3.59.6-.17,4.45-10.09,4.45-10.09.26-2.06,3.76-11.21,3.76-11.21-.6-1.19,1.8-5,1.8-5,1.11.85,6.41.43,6.41.43,2,.51,14.71-.26,14.71-.26a37.91,37.91,0,0,0,14,.26c2.57,1.19,8.3.34,8.3.34,2.14-.34,19.07-.26,19.07-.26,2.14-.94,18.13-.6,18.13-.6a96.24,96.24,0,0,0,16.84-.94c7.36,1,8.9-2,8.9-2,3.33-6.42-10.78-5.31-10.78-5.31-.43-.51-12.06.52-12.06.52-1.28.42-12.31.94-12.31.94-3.93,1.71-14.88.25-14.88.25-2.82-1.28-17.36-.77-17.36-.77-5.39,1.63-8.55.09-8.55.09-.68.43-12.48,1.88-12.48,1.88-1.37-1-13.34-1.45-13.34-1.45-3.43.34-2.74-6.67-2.74-6.67a10.93,10.93,0,0,0-.26-7c.52-3.67-5.39-3.42-5.39-3.42-1.45-1.11-10.68,1-10.68,1-5.56-.43-6.08,7.7-6.08,7.7.26,5.64-2.65,8.63-2.65,8.63-2,2.23-9.49.86-9.49.86-.94-.69-15-.09-15-.09-2.57.26-15.65-.51-15.65-.51-2.65.34-9.07-.34-9.07-.34-.77-.34-14.28.68-14.28.68-1.62-.17-12,0-12,0-2.14,0-10.78.17-10.78.17-9,3.42-2.13,7.19-2.13,7.19.16.91,8.19,1.12,8.19,1.12.64.85,21.21.21,21.21.21l.32.22c.32.21,18-.54,18-.54,2.57.64,17.14.32,17.14.32,7.61,1.5,17.14-1.18,17.14-1.18,3,1.07,1.93,8.15,1.93,8.15,0,2.46-7.82,18.31-7.82,18.31-2.79,5.25-14.68,2.36-14.68,2.36-1.82.32-24.21-.54-24.21-.54-3.1.43-21.1-.32-21.1-.32-13.71-1.28-12.11,5.14-12.11,5.14.11,3.75,21.43,2.25,21.43,2.25.43.86,22.82,0,22.82,0,8.67-2.35,19.92,1.61,19.92,1.61,4,4.07-5.46,13.82-5.46,13.82C92.41,240.52,88,238.09,88,238.09c-1.07,1.78-14.75-.24-14.75-.24-2.26.48-12.72.36-12.72.36-6.06-1.55-13.44-.71-13.44-.71-.71.71-17.24.35-17.24.35-14-.83-7.85,5.71-7.85,5.71.84,2.85,13.8,2.26,13.8,2.26,1.07.59,24,1.31,24,1.31C61,249,82.41,248,82.41,248c1.54,4.28-3.81,7.37-3.81,7.37-.71,2-13.79,13.68-13.79,13.68-1.54,2.73-12.72,9.15-12.72,9.15-4.64,5.83-18.19,13.2-18.19,13.2,0,1.07-10.82,5-10.82,5C5.6,313.36,33.18,308,33.18,308c1.67-.12,21-12.13,21-12.13.59.12,22.11-16.17,22.11-16.17,1.79-2.5,8.45-5.59,8.45-5.59,5.11,6.3,13.08,5.94,13.08,5.94,6.42-2.85,36,.72,36,.72,3.57,3-1.42,22.11-1.42,22.11-.95,8.33-15.7,4.4-15.7,4.4-1.78,1.31-26.16-.12-26.16-.12-.71-.47-32,.24-32,.24-17.24.24-2.86,5.83-2.86,5.83,4.28,3.09,29,1.54,29,1.54,2.38,1.31,37.1.24,37.1.24,7-.35-1.67,8.09-1.67,8.09-10,16.17-29.84,22.71-29.84,22.71-5.83,3.8-23.55,9.87-23.55,9.87C62,359,39.25,361.4,39.25,361.4c-9.75.35-13.92,6.77-13.92,6.77.36,6.66,15.7,3.57,15.7,3.57,8,2.14,21.76-3.33,21.76-3.33,2.38.24,22.83-7.73,22.83-7.73,2,0,20.33-9.27,20.33-9.27,2.86.24,21.76-15.22,21.76-15.22,5.23-6.19,18,.35,18,.35,1.3-.47,17.24,7,17.24,7,2.73-.24,26,8.56,26,8.56,3-.47,36.38,14,36.38,14,3.09,2.62,27.11,11.18,27.11,11.18,20.57-4.76,3.45-12.72,3.45-12.72-2.38-2.14-17.36-5.24-17.36-5.24-2.73-2.61-17.12-6.18-17.12-6.18-1.78.24-13.79-6.3-13.79-6.3-1.91.24-16.65-5.83-16.65-5.83-2.74.12-12.37-3.56-12.37-3.56-3,.47-11.89-2-11.89-2-1.31-2.25-16.88-7.25-16.88-7.25-3.45.12-4.88-5.11-4.88-5.11h.84c.83,0,5.12-7.42,5.12-7.42-1.45-4.36,6.46-1.56,6.46-1.56,2.43-1.29,10.69.16,10.69.16,1.08-2.1,7.76-.43,7.76-.43,1.29-.7,11.58.05,11.58.05,2.37.7,15.08.11,15.08.11,1.08.38,11.2-.27,11.2-.27,1.19.65,18.91.27,18.91.27,12.87-2.31-3.24-8.08-3.24-8.08-1.56-1.45-9.85-1-9.85-1-1.19.92-13.47.16-13.47.16-.53-.43-9.37,1.13-9.37,1.13-.43-.37-12.87-.16-12.87-.16-1.08-.43-11.23,0-11.23,0-.64-1-13.88-.54-13.88-.54-3.47-.37-2.56-2.47-2.56-2.47,1,.28,1.83-15.43,1.83-15.43.73-2.46,1-8.85,1-8.85.73.64,13.61.73,13.61.73,1.82.45,24.19-.64,24.19-.64,3.38,1.64,7.85-3.93,7.85-3.93.18-6.21,4.48.82,4.48.82.91,1.28,21.82,16.07,21.82,16.07,8.94,8.58,32.22,18.63,32.22,18.63C281.57,307.59,265.68,297.09,265.68,297.09ZM125.07,231.81s4.43-5.45,4.06-6.41c0,0,2.65-1.47,2.94-2.87,0,0,1.48-3.1,1.92-2.36,0,0,1.1-5.9,6-4.5,0,0,9.13-1.1,12.52.67a109.31,109.31,0,0,1,6.26,11.27s2.66,5.23,3.17,5.89c0,0,3.76,3.47-1,2,0,0-12.89.15-13.78-1.1,0,0-11.49-.81-14,0,0,0-6.34-1.25-7.52-.89C125.59,233.5,120.29,234.61,125.07,231.81ZM188,268.31s-17.93.22-19.91-.66c0,0-8.5,1.53-14.53-.88-.55-.22-2.09,1.87-13.64,0,0,0-17.05.22-16.94-.77,0,0-15.07,1.43-17.16.66,0,0-5.72,1.32-6.6-.33,0,0-3.63-2.64-.33-4.84,0,0,4.95-6.38,5.61-7.15a7.85,7.85,0,0,1,6-1.32s13.42-1.76,15.18-.88c0,0,17.82-.66,19.47-.22,0,0,13.86-.11,14.3,0,0,0,12.22-1.87,14.2-.77,0,0,3.08-1.77,4.29,1.1,0,0,9.57,10.89,9.68,12.1C187.65,264.35,192.71,268.31,188,268.31Z"/><path class="cls-1" d="M176.45,245.69c-.62,1-12.51,1-12.51,1-1,1-59.26,2.25-59.26,2.25C104.27,251,95,260.46,95,260.46c-7,5.33-3.89,7.17-3.89,7.17.41,6.16,38.14,4.11,38.14,4.11,3.69,0,53.72.61,53.72.61,13.33,2.46,14.36-2.26,14.36-2.26C197.37,266.61,176.45,245.69,176.45,245.69Zm11.39,22.58s-17.93.22-19.91-.66c0,0-8.49,1.53-14.52-.88-.55-.22-2.09,1.87-13.64,0,0,0-17.05.22-16.94-.77,0,0-15.07,1.43-17.16.66,0,0-5.72,1.32-6.6-.33,0,0-3.63-2.65-.33-4.85,0,0,5-6.38,5.61-7.15A7.85,7.85,0,0,1,110.4,253s13.42-1.76,15.18-.88c0,0,17.82-.66,19.47-.22,0,0,13.86-.11,14.3,0,0,0,12.21-1.87,14.19-.77,0,0,3.08-1.76,4.29,1.1,0,0,9.57,10.89,9.68,12.1C187.51,264.3,192.57,268.27,187.84,268.27Z"/><path class="cls-1" d="M169.24,235.16c-3.07-1.43-9.84-17-9.84-17-2.87-8-5.12-7.18-5.12-7.18-1.23-.41-9.64-.2-9.64-.2C133,209.32,131.92,213,131.92,213c1,.2-3.07,5.33-3.07,5.33-1.23,1.23-9.64,13.53-9.64,13.53-3.07,8.61,5.74,7,5.74,7,2.26,1.64,18,0,18,0,.82.62,23.58-.2,23.58-.2C176.42,238.85,169.24,235.16,169.24,235.16Zm-8.28.16s-12.9.15-13.78-1.1c0,0-11.49-.81-14,0,0,0-6.34-1.25-7.51-.88,0,0-5.31,1.1-.52-1.7,0,0,4.42-5.45,4-6.41,0,0,2.65-1.47,3-2.87,0,0,1.47-3.1,1.91-2.36,0,0,1.11-5.89,6-4.49,0,0,9.14-1.11,12.53.66a109.31,109.31,0,0,1,6.26,11.27s2.65,5.23,3.17,5.9C162,233.34,165.75,236.8,161,235.32Z"/></g></g></svg>