<svg xmlns="http://www.w3.org/2000/svg" viewBox="0 0 291.05 522.95"><defs><style>.cls-1{fill:#fff;}</style></defs><g id="レイヤー_2" data-name="レイヤー 2"><g id="ひらがな"><path class="cls-1" d="M164.48,101.05c-1.84.58-2.87-3.57-3.33-3.57-2,0-1-18.54-1-18.54.46-3-.69-12.32-.69-12.32,0-5.18-1.84-5-1.84-5-5.65-11.63-4.84,3.91-4.84,3.91,2.19,2,1.61,11.17,1.61,11.17,0,1.15,1.5,16.12,1.5,16.12,2.53,3.8-4.72,1.85-4.72,1.85-.92-.69-9.56.11-9.56.11-4.61-.23-4.61,8-4.61,8-2.3,7.71,9.91,14.51,9.91,14.51,6.33,4.72,13.24-6.11,13.24-6.11-1-1.84,2.19-6.45,2.19-6.45C170.7,105.31,164.48,101.05,164.48,101.05Zm-11,5.74s-4.86,8-10.44,2.91c0,0-4.73-5.34,5.46-8.25C148.46,101.45,157.93,99.38,153.44,106.79Z"/><path class="cls-1" d="M0,40.82s1.48-4,4.24-3.07c0,0,5.05,1,5.69,1.23a12.76,12.76,0,0,0,4.44.67s1.93.09,2.6,1.18c0,0,1.34,1.38,1.17-.47,0,0,1-3.47,2.52-4.09a11.47,11.47,0,0,1-.1-3.06s2.15-5.18,2.32-7.1c0,0,2.3-5.1,2.19-5.43a8.19,8.19,0,0,0,1.21-3.89s4-8.56,5.81-1.15c0,0-.6,7.16-2.26,10.9,0,0-2.55,9.82-3.84,11.75,0,0-1.51,7-1.77,7.32,0,0,6.65,8.06,6.65,9.25,0,0,4.94,9.88,4.05,14.86,0,0,.26,9.88-1,12.16,0,0-4.78,10.45-8.11,9.2,0,0-7.38-3.79-3.79-5.77,0,0,6.86-8.68,6.6-13.2,0,0-1.46-11.12-3.33-14,0,0-4.68-9.1-4.36-1.2,0,0-1.82,7.17-2.55,8.68,0,0-2.08,6.7-2.29,8.36a70.16,70.16,0,0,0-2.7,8.94S10.33,91.76,10,93.16c0,0-3.48,7.58-3.59,9.4,0,0-4,2-2.65-1.94A28.84,28.84,0,0,1,4.6,95s2.07-8,2.79-8.68l3.9-15.86s3.35-12.42,3.35-14c0,0,2.55-7.8-2-9.4,0,0-5.9-1.39-7.17.2C5.48,47.28-.54,45.75,0,40.82Z"/><path class="cls-1" d="M53.31,12.52s-1.88-14.86,5.76-1.15c0,0,1.57,31.19,1.36,34.64,0,0,2,21.36,2.72,21.88,0,0,1.25,8.9.63,11.83,0,0,5.23,17-1.47,7.74,0,0-4.5-4.18-5.76-17.69,0,0-2.93-28.67-2.72-30.45,0,0-1.46-21.25-1.15-22.3A16.22,16.22,0,0,1,53.31,12.52Z"/><path class="cls-1" d="M108.53,15.55s6.66,7,7.59,1.75c0,0,3.07-9.84,3.48-10.15,0,0,2-8.7,4.2,1.23,0,0,1.23,9.22,0,11.17,0,0-2.56,5.94-.1,6.15,0,0,7.89,5.43.1,7.37,0,0-4.2-1.74-3.69,2.77,0,0-1.94,10.65-1.84,11.47,0,0-2,9.74-1.64,9.84,0,0-2.36,15.26-5.74.31,0,0,0-18.34,2.25-23.26,0,0,2.36-5.53-1.43-7.27,0,0-7.79-6.87-7.68-8.4C104,18.53,102.18,11.35,108.53,15.55Z"/><path class="cls-1" d="M150.54,18.42s-1.43-16.8,6.15-2.56A91.81,91.81,0,0,1,162.22,28s4.71,9.12,5.94,10c0,0-.1,10.14-5.94.82,0,0-9.53-14.14-10.14-16.8A16.66,16.66,0,0,1,150.54,18.42Z"/><path class="cls-1" d="M245.19,480.19s-14.18-7.49.91-7.26c0,0,20.64,3.51,25.41,7.71,0,0,6.69,5-3.86,4,0,0-6.58-2.84-3.29,3.4,0,0,3.4,16.68,3.29,17.93,0,0,.91,12,5,8.73,0,0,11.46-1,13.05-.34,0,0,6.8,1.13-4.31,5.79,0,0-22.58,1.81-24.85,2.83,0,0-13.95-.45-6.69-8.51a31.47,31.47,0,0,1,11.35-.9s1.81.45-.8-12.71c0,0-2.15-8.17-1-13.5,0,0,.91-3.74-3.06-3.4C256.31,483.93,245.64,481,245.19,480.19Z"/><path class="cls-1" d="M135.64,417.55a160,160,0,0,1,19,7.77s16.93,9.15,20.69,10.06c0,0,6.77,2.66,3.47,12,0,0-3.11,18.4-4.3,21.06,0,0-2.74,13.45-3.84,14.09,0,0-1.56,7.05-1.83,10.53,0,0-2.2,9.24-3.57,10.43,0,0-10.26,16.76-5.5-4.85,0,0,2.75-14.37,4.49-15.56,0,0-1.1-11.44,2.38-14.46,0,0,1.37-10.43,1.83-12.81,0,0,3.48-11.63,3.11-12.18,0,0,1.83-3.29-4.39-4.39,0,0-15.56-6-15.75-6.59,0,0-14.82-7.14-17-7.23C134.42,425.41,119.66,414.46,135.64,417.55Z"/><path class="cls-1" d="M219.8,23.72s-11.6-10.54,3.31-5c0,0,37.66,13,37.66,13.56,0,0,10.55,4.82,11.75,4.07,0,0,4.37,1.35-1.35,8,0,0-7.39,11.9-9.8,14.47,0,0-9.49,12.2-10.09,12.5,0,0-15.21,22.6-6.48,29.22,0,0,3.77,11.75,19,6.33,0,0,15.82-4.37,1.06,6.48,0,0-7.83,3.92-14.76-.3,0,0-16.12-6-13.71-25.16,0,0,4.52-13.26,18.07-30.88,0,0,8.74-15.07,9.34-16.12,0,0-23.95-7.84-26.81-9.79C237,31.11,221.3,24.63,219.8,23.72Z"/><path class="cls-1" d="M14.56,440.08s-17.15-8,.68-11.3c0,0,12.39,4.63,12.53,4.09,0,0,5.58,5.44,5.58-1,0,0,2.31-12.93,3.13-13.74,0,0,5.71-10.89,8.16,2.31,0,0-3.26,18.38-3.81,18.24,0,0,19.06,7.49,20,13.75,0,0,4.09,6.4,3.81,9.39l1.09,26.82s-.13,25.45-.95,26.13c0,0-5.85,17.7-6.4-2,0,0-1.09-21.64.41-29.13,0,0,.27-15.11.82-17.15,0,0-.14-8.58-6-13.75,0,0-10.62-6.26-12-6.26,0,0-1.91-2.18-2.59,3.27,0,0-3.67,14.43-4.08,15.24,0,0-4.63,23.28-5,23.28,0,0-5,27.63-7.08,28.18,0,0-5.3,10.89-2.85-4.9,0,0,5-32,5.17-33.76,0,0,5-23.42,4.76-24.91,0,0,3.27-8.17-.13-11.85C29.81,441,15.69,440.88,14.56,440.08Z"/><path class="cls-1" d="M283.87,4.15s1.89-8.54,6.65-1.12c0,0,1.4,5-.35,7.07,0,0-2.31,5-4,4.27,0,0-3.64,10.22-4.27.07C281.91,14.44,282.47,6.53,283.87,4.15Z"/><path class="cls-1" d="M269.45,4.85s1.33-7.91,4.41-1.26c0,0,3.85,3.57,1.75,7.77,0,0,.14,5.67-2.66,5.81C273,17.17,269.17,18.64,269.45,4.85Z"/></g></g></svg>