<svg xmlns="http://www.w3.org/2000/svg" viewBox="0 0 259.37 236.2"><defs><style>.cls-1{fill:#fff;}.cls-2{fill:#7b8897;}</style></defs><g id="レイヤー_2" data-name="レイヤー 2"><g id="奏"><path class="cls-1" d="M204.24,143.72c.35.82,12.73,10.05,12.73,10.05,2.57.58,19.86,11.68,19.86,11.68,1.4,4.91,9.47,4,9.47,4,23,1.87,8.64-17.64,8.64-17.64-5-9.11-27.57-19.16-27.57-19.16a123.85,123.85,0,0,1-28-22.2c-5.72-6.19,6.66-4.55,6.66-4.55,1.17,1.52,43.58.11,43.58.11,12.5-2.22,7.24-13,7.24-13-1.87-3.51-13.32-3.51-13.32-3.51-1.75-1.05-22,0-22,0-3.27,1.17-31.78.59-31.78.59-7.36.93-6.07-1.52-6.07-1.52,0-1.52-11-18.35-11-18.35-3.15-2.1,2.11-2.45,2.11-2.45.11.94,18.11.59,18.11.59,6.42,2.92,31.19,0,31.19,0,31.89-8.3-2.46-17-2.46-17-8.41-1.51-21.84.36-21.84.36-2.57,1.4-24.07.58-24.07.58-3.15-.23-36.92.58-36.92.58-3.85,2.69-8.41.59-8.41.59-5.84,2,.24-5.26.24-5.26,1.05-.93,5.49-12.27,5.49-12.27-.94-5.49,10.86-2.92,10.86-2.92,2.1-.81,40.42.47,40.42.47,1.06-1,41.6-.82,41.6-.82,17.64-1,15.65-10.16,15.65-10.16-3.5-9.11-23.95-6.08-23.95-6.08-2.8,1.17-20.91,1.41-21.73,1.05s-14.84.12-14.84.12c-3.5-1.17-15.89-.12-15.89-.12-1.16-.81-12.73-.23-12.73-.23-9.23-.47-14.37-1-14.37-1,1.29-4.56-1.4-10.52-1.4-10.52-2.1-9.93-23-4-23-4-6.54-.11-8.18,14.49-8.18,14.49,5.61,4.91-29.2,2.34-29.2,2.34C79,18.25,67.2,18,67.2,18c-2.81.47-33.77.35-33.77.35-9.46-3-14.13,3-14.13,3C12,24.62,17,30,17,30c-.49,7.24,31.37,4.83,31.37,4.83,6.76,3.86,17.14,0,17.14,0,2.41,1.45,33.55,0,33.55,0,4.59-1.21.48,9.17.48,9.17-3.38,13.27-6.76,10.86-6.76,10.86-2.89,1.69-41.27-1-41.27-1C39.39,51.25,24,57.52,24,57.52,19.84,69.59,35.53,69.35,35.53,69.35c4.1,1,43.21.24,43.21.24C89.6,68.87,86.46,73,86.46,73c-1.69-.24-10.14,13.52-10.14,13.52-1.69,4.83-15.69,3.86-15.69,3.86-2.17,1.21-47.79-1.69-47.79-1.69-26.06,7.24,0,16.86,0,16.86.93,1.09,40.88.78,40.88.78,10.29.47,5.46,2.65,5.46,2.65.15.78-7.34,8.9-7.34,8.9-.78.78-18.72,15.6-18.72,15.6C28.79,138.91,14,145,14,145,11.78,144.21.24,155,.24,155-2.88,181.66,25.83,164,25.83,164c2.8.78,42.9-30,42.9-30,8,6.4,12,3.75,12,3.75,1.56,1.71,31.83.93,31.83.93,6.71-.62,1.72,12.8,1.72,12.8-.79,8-6.09,6.71-6.09,6.71-.94,1.25-21.06.93-21.06.93-.94.94-45.72-1.56-45.72-1.56-22.63,10-2,15.29-2,15.29,3.28,5.46,56,.47,56,.47C111.33,171.21,97,181,97,181c-.32,4.05-24.19,18.1-24.19,18.1-16.07,8.73-49.15,13-49.15,13-27,5.15-12.95,17.32-12.95,17.32,6.71,9.36,50.24-5.62,50.24-5.62,8.12.47,55.24-29.18,55.24-29.18,4.68-3.9,37.76,10,37.76,10,4.52-.78,71.15,28.24,71.15,28.24,26,10.92,25.12-8.27,25.12-8.27-2.19-12.48-30.58-15.14-30.58-15.14-1.88.94-12.8-5.3-12.8-5.3-.94-2.34-41.5-15.29-41.5-15.29-5.62.47-25.46-7.74-29-9.25s0-1.87,0-1.87c.47,0,1.4-2.57,1.4-2.57,1.87-4.09,3.62-1.64,3.62-1.64-.11-.35,9.12-.35,9.12-.35,1.75-.23,16.47,0,16.47,0,1.75,2,23.83.58,23.83.58,1.75,1.29,24.54-.46,24.54-.46,18.34-1.17,6.54-11.69,6.54-11.69-2.1-3.73-12.74-4.08-12.74-4.08-.35.46-21.49,0-21.49,0-2.81,1.86-27.46.35-27.46.35-3.5,1.4-15.54-1.06-15.54-1.06,1.29-.81,2-10.51,2-10.51a13.27,13.27,0,0,1,1.29-7.36c1.75,1.17,23.95-.7,23.95-.7,3.85,1.87,17.05-2,17.05-2,1-5,6.55,1.29,6.55,1.29C194.77,138.35,204.24,143.72,204.24,143.72ZM109.47,87.13s4.42-5.45,4-6.41c0,0,2.66-1.47,3-2.87,0,0,1.47-3.1,1.92-2.36,0,0,1.1-5.89,6-4.49,0,0,9.14-1.11,12.53.66a109.31,109.31,0,0,1,6.26,11.27s2.65,5.23,3.17,5.9c0,0,3.76,3.46-1,2,0,0-12.9.15-13.78-1.1,0,0-11.49-.81-14,0,0,0-6.33-1.25-7.51-.88C110,88.83,104.68,89.93,109.47,87.13Zm63.24,36.7s-17.93.22-19.91-.66c0,0-8.49,1.53-14.52-.88-.55-.22-2.09,1.87-13.64,0,0,0-17.06.22-17-.77,0,0-15.07,1.43-17.16.66,0,0-5.72,1.32-6.6-.33,0,0-3.63-2.64-.33-4.84,0,0,5-6.38,5.61-7.15a7.85,7.85,0,0,1,6.05-1.32s13.43-1.76,15.19-.88c0,0,17.82-.66,19.47-.22,0,0,13.86-.11,14.3,0,0,0,12.21-1.87,14.19-.77,0,0,3.08-1.76,4.29,1.1,0,0,9.57,10.89,9.68,12.1C172.38,119.87,177.44,123.83,172.71,123.83Z"/><path class="cls-2" d="M250.41,152.61C248.86,150,227,138.1,227,138.1c-2.46-1.47-22.37-17-22.37-17-2.92-1.09-12.23-15-12.23-15-6.21-5.75,7.94-3.92,7.94-3.92a18.29,18.29,0,0,0,8.13-.28c1,.73,16.07.91,16.07.91,4,1.1,24.55-2.28,24.55-2.28,15.16-2.65-4.56-7.76-4.56-7.76-1-.73-18.9.28-18.9.28C224.39,94,199,94.18,199,94.18A27.29,27.29,0,0,1,181.48,91c-1-.37-13.33-20.64-13.33-20.64-4.1-3.19.92-4.84.92-4.84.18-2,23.46-1.37,23.46-1.37,5.84,1.65,28.49-.54,28.49-.54,19.44-.64,9.86-5.94,9.86-5.94-1.92-2.74-30.5-1.91-30.5-1.91-.45.82-28.57,1.27-28.57,1.27-2.2-.91-30.42.73-30.42.73-1.11-.51-10.86.6-10.86.6-.6-.68-4.79,0-4.79,0-3.42,2-1.45-3.59-1.45-3.59.59-.17,4.44-10.09,4.44-10.09.26-2.05,3.76-11.2,3.76-11.2-.59-1.2,1.8-5,1.8-5,1.11.86,6.41.43,6.41.43,2,.51,14.71-.26,14.71-.26a37.71,37.71,0,0,0,14,.26c2.56,1.2,8.29.34,8.29.34,2.14-.34,19.07-.25,19.07-.25,2.14-1,18.13-.6,18.13-.6a97.63,97.63,0,0,0,16.85-.94c7.35,1,8.89-2,8.89-2,3.34-6.41-10.77-5.3-10.77-5.3-.43-.52-12.06.51-12.06.51-1.28.43-12.32.94-12.32.94-3.93,1.71-14.88.26-14.88.26-2.82-1.28-17.35-.77-17.35-.77-5.39,1.62-8.56.08-8.56.08-.68.43-12.48,1.89-12.48,1.89-1.37-1-13.34-1.46-13.34-1.46-3.42.34-2.74-6.67-2.74-6.67a11,11,0,0,0-.25-7c.51-3.68-5.39-3.42-5.39-3.42-1.46-1.11-10.69,1-10.69,1-5.56-.42-6.07,7.7-6.07,7.7.25,5.64-2.65,8.64-2.65,8.64-2,2.22-9.5.85-9.5.85-.94-.68-15-.08-15-.08-2.57.25-15.65-.52-15.65-.52-2.65.35-9.06-.34-9.06-.34-.77-.34-14.29.69-14.29.69-1.62-.17-12,0-12,0-2.14,0-10.77.17-10.77.17-9,3.42-2.14,7.18-2.14,7.18.16.91,8.19,1.12,8.19,1.12.65.86,21.22.22,21.22.22l.32.21c.32.21,18-.54,18-.54,2.57.65,17.14.33,17.14.33,7.61,1.5,17.14-1.18,17.14-1.18,3,1.07,1.93,8.14,1.93,8.14,0,2.46-7.82,18.32-7.82,18.32-2.78,5.25-14.67,2.35-14.67,2.35-1.83.33-24.21-.53-24.21-.53-3.11.43-21.11-.32-21.11-.32-13.71-1.29-12.1,5.14-12.1,5.14.1,3.75,21.42,2.25,21.42,2.25.43.86,22.82,0,22.82,0C79.72,62.94,91,66.91,91,66.91c4,4.07-5.46,13.81-5.46,13.81C77.14,96,72.73,93.61,72.73,93.61,71.66,95.4,58,93.38,58,93.38c-2.26.47-12.73.35-12.73.35C39.2,92.19,31.83,93,31.83,93c-.72.71-17.24.36-17.24.36-14-.84-7.85,5.7-7.85,5.7.83,2.86,13.79,2.26,13.79,2.26,1.07.6,24,1.31,24,1.31,1.19,1.9,22.59.83,22.59.83,1.55,4.28-3.8,7.38-3.8,7.38-.72,2-13.8,13.67-13.8,13.67-1.54,2.74-12.72,9.16-12.72,9.16-4.64,5.82-18.19,13.19-18.19,13.19,0,1.07-10.82,5-10.82,5-17.48,17,10.11,11.65,10.11,11.65,1.66-.12,21-12.13,21-12.13.6.12,22.12-16.17,22.12-16.17,1.78-2.5,8.44-5.59,8.44-5.59,5.11,6.31,13.08,6,13.08,6,6.42-2.86,36,.71,36,.71,3.57,3-1.43,22.12-1.43,22.12-1,8.32-15.69,4.4-15.69,4.4-1.79,1.31-26.16-.12-26.16-.12-.72-.48-32,.24-32,.24-17.24.23-2.85,5.82-2.85,5.82,4.28,3.09,29,1.55,29,1.55,2.38,1.31,37.1.24,37.1.24,7-.36-1.67,8.08-1.67,8.08-10,16.17-29.84,22.71-29.84,22.71-5.83,3.81-23.54,9.87-23.54,9.87C46.69,214.54,24,216.92,24,216.92c-9.75.36-13.91,6.78-13.91,6.78.35,6.66,15.69,3.56,15.69,3.56,8,2.14,21.76-3.32,21.76-3.32,2.38.23,22.83-7.73,22.83-7.73,2,0,20.34-9.28,20.34-9.28,2.85.24,21.75-15.22,21.75-15.22,5.24-6.18,18,.36,18,.36,1.31-.48,17.24,7,17.24,7,2.74-.23,26,8.57,26,8.57,3-.48,36.39,14,36.39,14,3.09,2.61,27.11,11.17,27.11,11.17,20.57-4.75,3.44-12.72,3.44-12.72-2.37-2.14-17.36-5.23-17.36-5.23-2.73-2.62-17.12-6.18-17.12-6.18-1.78.23-13.79-6.31-13.79-6.31-1.9.24-16.65-5.82-16.65-5.82-2.73.12-12.36-3.57-12.36-3.57-3,.48-11.89-2-11.89-2-1.31-2.26-16.89-7.25-16.89-7.25-3.45.11-4.87-5.12-4.87-5.12h.83c.83,0,5.12-7.41,5.12-7.41-1.45-4.37,6.47-1.57,6.47-1.57,2.42-1.29,10.69.17,10.69.17,1.07-2.1,7.75-.44,7.75-.44,1.3-.7,11.58.06,11.58.06,2.37.7,15.08.11,15.08.11,1.08.37,11.2-.27,11.2-.27,1.19.64,18.91.27,18.91.27,12.87-2.32-3.23-8.08-3.23-8.08-1.56-1.46-9.86-1-9.86-1-1.18.92-13.46.17-13.46.17-.54-.43-9.37,1.13-9.37,1.13-.44-.38-12.88-.16-12.88-.16-1.07-.44-11.23,0-11.23,0-.64-1-13.88-.55-13.88-.55-3.47-.36-2.55-2.46-2.55-2.46,1,.27,1.82-15.43,1.82-15.43.73-2.47,1-8.86,1-8.86.73.64,13.6.73,13.6.73,1.83.46,24.19-.64,24.19-.64,3.38,1.65,7.85-3.92,7.85-3.92.19-6.21,4.48.82,4.48.82.91,1.28,21.82,16.07,21.82,16.07,9,8.58,32.23,18.62,32.23,18.62C266.3,163.11,250.41,152.61,250.41,152.61ZM109.81,87.33s4.42-5.45,4-6.41c0,0,2.65-1.47,3-2.87,0,0,1.47-3.09,1.91-2.36,0,0,1.11-5.89,6-4.49,0,0,9.14-1.11,12.53.66a109.31,109.31,0,0,1,6.26,11.27s2.65,5.23,3.17,5.9c0,0,3.75,3.46-1,2,0,0-12.89.14-13.77-1.11,0,0-11.5-.81-14,0,0,0-6.34-1.25-7.52-.88C110.32,89,105,90.13,109.81,87.33Zm62.9,36.5s-17.93.22-19.91-.66c0,0-8.49,1.53-14.52-.88-.55-.22-2.09,1.87-13.64,0,0,0-17.06.22-17-.77,0,0-15.07,1.43-17.16.66,0,0-5.72,1.32-6.6-.33,0,0-3.63-2.64-.33-4.84,0,0,5-6.38,5.61-7.15a7.85,7.85,0,0,1,6.05-1.32s13.43-1.76,15.19-.88c0,0,17.82-.66,19.47-.22,0,0,13.86-.11,14.3,0,0,0,12.21-1.87,14.19-.77,0,0,3.08-1.76,4.29,1.1,0,0,9.57,10.89,9.68,12.1C172.38,119.87,177.44,123.83,172.71,123.83Z"/><path class="cls-1" d="M161.18,101.22c-.61,1-12.51,1-12.51,1-1,1-59.26,2.26-59.26,2.26-.41,2-9.63,11.48-9.63,11.48-7,5.33-3.9,7.18-3.9,7.18.41,6.15,38.14,4.1,38.14,4.1,3.69,0,53.72.61,53.72.61,13.33,2.47,14.36-2.25,14.36-2.25C182.1,122.13,161.18,101.22,161.18,101.22Zm11.4,22.57s-17.93.22-19.92-.66c0,0-8.49,1.53-14.52-.88-.55-.22-2.09,1.87-13.64,0,0,0-17,.22-16.94-.77,0,0-15.07,1.43-17.16.66,0,0-5.72,1.32-6.6-.33,0,0-3.63-2.64-.33-4.84,0,0,5-6.38,5.61-7.15a7.85,7.85,0,0,1,6-1.32s13.42-1.76,15.18-.88c0,0,17.82-.66,19.47-.22,0,0,13.86-.11,14.3,0,0,0,12.22-1.87,14.2-.77,0,0,3.08-1.76,4.29,1.1,0,0,9.57,10.89,9.68,12.1C172.25,119.83,177.31,123.79,172.58,123.79Z"/><path class="cls-1" d="M154,90.69c-3.08-1.44-9.84-17-9.84-17-2.88-8-5.13-7.18-5.13-7.18-1.23-.41-9.64-.21-9.64-.21-11.69-1.43-12.71,2.26-12.71,2.26,1,.2-3.08,5.33-3.08,5.33-1.23,1.23-9.64,13.53-9.64,13.53-3.07,8.62,5.75,7,5.75,7,2.25,1.64,18,0,18,0,.82.61,23.58-.21,23.58-.21C161.15,94.38,154,90.69,154,90.69Zm-8.29.16s-12.89.15-13.78-1.11c0,0-11.49-.81-14,0,0,0-6.33-1.25-7.51-.88,0,0-5.31,1.11-.52-1.69,0,0,4.42-5.46,4.06-6.41,0,0,2.65-1.48,2.94-2.88,0,0,1.48-3.09,1.92-2.36,0,0,1.1-5.89,6-4.49,0,0,9.13-1.1,12.52.66A108.79,108.79,0,0,1,143.55,83s2.65,5.23,3.17,5.89C146.72,88.86,150.48,92.32,145.69,90.85Z"/></g></g></svg>