<svg xmlns="http://www.w3.org/2000/svg" viewBox="0 0 34.25 32.88"><defs><style>.cls-1{fill:#513822;}</style></defs><g id="レイヤー_2" data-name="レイヤー 2"><g id="font"><path class="cls-1" d="M18.81,18.34s-1.47-1.27-1.44-1.49c0,0,.89-.9,1.19-.92,0,0,.5.1,1.24,1.39,0,0,3.15,4.46,3.77,4.71,0,0,.52.85.89.94,0,0,.57,1.05,1.1,1.27a15.2,15.2,0,0,0,3.1,3.17s3.92,3.33,4.34,3.45c0,0,3.35,2.91-.9,1.74a54.91,54.91,0,0,1-5.65-4.37,32.56,32.56,0,0,0-3.15-3.74,27.77,27.77,0,0,0-2.61-3.65A9.07,9.07,0,0,0,18.81,18.34Z"/><path class="cls-1" d="M14.22,12.75S14.09,9.81,16.3,11a5.65,5.65,0,0,1,1.83,2.79s.47,1.77-.58,2c0,0-.89.29-2-1.09A12.47,12.47,0,0,1,14.22,12.75Z"/><path class="cls-1" d="M28.58,5.58s2-1,2.59,0A1.34,1.34,0,0,1,31,8s-3.87,2.48-4.16,2.68a24.89,24.89,0,0,0-3.81,2,6.16,6.16,0,0,0-2,1.13s-1.76.57-.52-.78c0,0,2.59-2.68,3.22-3.62C23.68,9.34,27.73,5.75,28.58,5.58Z"/><path class="cls-1" d="M18.66,9.78s-2.74,3.39.56,1.39c0,0,3.63-3.14,4-3.28,0,0,2.86-2.68,3.39-3,0,0,2.38-2.75,1.38-4.12a1.23,1.23,0,0,0-2-.37,17.87,17.87,0,0,0-2,2,11.75,11.75,0,0,1-2.12,2.45S18.92,9.8,18.66,9.78Z"/><path class="cls-1" d="M5.27,21.19S2,24,5.29,24.51a2.72,2.72,0,0,0,2.59-.85s3.37-2.57,3.51-2.77c0,0,2.9-3.33,3.33-3.67,0,0,.82-.9.8-1.1,0,0-.34-.48-1,.16,0,0-1.26.69-1.61.59a13.07,13.07,0,0,0-3.43,1.89A33.2,33.2,0,0,0,5.27,21.19Z"/><path class="cls-1" d="M2.18,16.21S-2.6,19.07,2,19.57c0,0,5-.87,5.6-1.41a12,12,0,0,1,2.6-1.41s2.86-1.41,3.33-1.77c0,0,1.81-1.12-.07-1.09,0,0-4.49.51-4.59.66a8.86,8.86,0,0,0-3.22.94A12.2,12.2,0,0,0,2.18,16.21Z"/><circle class="cls-1" cx="13.35" cy="10.67" r="0.71"/><circle class="cls-1" cx="15.3" cy="9.46" r="0.71"/></g></g></svg>